<mxfile host="app.diagrams.net" modified="2024-01-05T08:24:11.738Z" agent="Mozilla/5.0 (Windows NT 10.0; Win64; x64) AppleWebKit/537.36 (KHTML, like Gecko) Chrome/120.0.0.0 Safari/537.36 Edg/120.0.0.0" etag="1goXXSYbKRSz31xzUP-n" version="22.1.16" type="github">
  <diagram name="Page-1" id="hHK5IXXlH-hD7kLnO2WC">
    <mxGraphModel dx="1638" dy="1985" grid="1" gridSize="10" guides="1" tooltips="1" connect="1" arrows="1" fold="1" page="1" pageScale="1" pageWidth="850" pageHeight="1100" math="0" shadow="0">
      <root>
        <mxCell id="0" />
        <mxCell id="1" parent="0" />
        <mxCell id="BGUdlJ1mRM6hW-QfQInx-98" value="Level Gameplay" style="swimlane;whiteSpace=wrap;html=1;" vertex="1" parent="1">
          <mxGeometry x="1960" y="119" width="550" height="921" as="geometry" />
        </mxCell>
        <mxCell id="BGUdlJ1mRM6hW-QfQInx-1" value="" style="ellipse;html=1;shape=startState;fillColor=#A8DADC;strokeColor=#457B9D;fontColor=#1D3557;labelBackgroundColor=none;" vertex="1" parent="1">
          <mxGeometry x="742" y="-101" width="30" height="30" as="geometry" />
        </mxCell>
        <mxCell id="BGUdlJ1mRM6hW-QfQInx-2" value="" style="edgeStyle=orthogonalEdgeStyle;html=1;verticalAlign=bottom;endArrow=classic;endSize=8;strokeColor=#457B9D;rounded=0;fontColor=default;fillColor=#A8DADC;labelBackgroundColor=none;endFill=1;" edge="1" parent="1">
          <mxGeometry relative="1" as="geometry">
            <mxPoint x="756.71" y="-42" as="targetPoint" />
            <mxPoint x="756.71" y="-74" as="sourcePoint" />
          </mxGeometry>
        </mxCell>
        <mxCell id="BGUdlJ1mRM6hW-QfQInx-3" style="edgeStyle=orthogonalEdgeStyle;rounded=0;orthogonalLoop=1;jettySize=auto;html=1;entryX=0.5;entryY=0;entryDx=0;entryDy=0;strokeColor=#457B9D;fontColor=default;fillColor=#A8DADC;labelBackgroundColor=none;" edge="1" parent="1" source="BGUdlJ1mRM6hW-QfQInx-4" target="BGUdlJ1mRM6hW-QfQInx-6">
          <mxGeometry relative="1" as="geometry" />
        </mxCell>
        <mxCell id="BGUdlJ1mRM6hW-QfQInx-4" value="Start Game" style="rounded=1;whiteSpace=wrap;html=1;arcSize=40;fontColor=#1D3557;fillColor=#A8DADC;strokeColor=#457B9D;labelBackgroundColor=none;" vertex="1" parent="1">
          <mxGeometry x="697" y="-41" width="120" height="40" as="geometry" />
        </mxCell>
        <mxCell id="BGUdlJ1mRM6hW-QfQInx-5" value="" style="edgeStyle=orthogonalEdgeStyle;html=1;verticalAlign=bottom;endArrow=classic;endSize=8;strokeColor=#457B9D;rounded=0;fontColor=default;fillColor=#A8DADC;labelBackgroundColor=none;endFill=1;" edge="1" parent="1">
          <mxGeometry relative="1" as="geometry">
            <mxPoint x="757" y="115" as="targetPoint" />
            <mxPoint x="757" y="55" as="sourcePoint" />
          </mxGeometry>
        </mxCell>
        <mxCell id="BGUdlJ1mRM6hW-QfQInx-6" value="Select Level" style="rounded=1;whiteSpace=wrap;html=1;arcSize=40;fontColor=#1D3557;fillColor=#A8DADC;strokeColor=#457B9D;labelBackgroundColor=none;" vertex="1" parent="1">
          <mxGeometry x="697" y="31" width="120" height="40" as="geometry" />
        </mxCell>
        <mxCell id="BGUdlJ1mRM6hW-QfQInx-7" style="edgeStyle=orthogonalEdgeStyle;rounded=0;orthogonalLoop=1;jettySize=auto;html=1;entryX=0;entryY=0.5;entryDx=0;entryDy=0;strokeColor=#457B9D;fontColor=default;fillColor=#A8DADC;labelBackgroundColor=none;" edge="1" parent="1" source="BGUdlJ1mRM6hW-QfQInx-9" target="BGUdlJ1mRM6hW-QfQInx-10">
          <mxGeometry relative="1" as="geometry" />
        </mxCell>
        <mxCell id="BGUdlJ1mRM6hW-QfQInx-8" style="edgeStyle=orthogonalEdgeStyle;rounded=0;orthogonalLoop=1;jettySize=auto;html=1;entryX=0.5;entryY=0;entryDx=0;entryDy=0;strokeColor=#457B9D;fontColor=default;fillColor=#A8DADC;labelBackgroundColor=none;" edge="1" parent="1" source="BGUdlJ1mRM6hW-QfQInx-9" target="BGUdlJ1mRM6hW-QfQInx-12">
          <mxGeometry relative="1" as="geometry" />
        </mxCell>
        <mxCell id="BGUdlJ1mRM6hW-QfQInx-9" value="Level Available?" style="shape=hexagon;perimeter=hexagonPerimeter2;whiteSpace=wrap;html=1;fixedSize=1;strokeColor=#457B9D;fontColor=#1D3557;fillColor=#A8DADC;labelBackgroundColor=none;" vertex="1" parent="1">
          <mxGeometry x="697" y="115" width="120" height="36" as="geometry" />
        </mxCell>
        <mxCell id="BGUdlJ1mRM6hW-QfQInx-10" value="Display Unavailable Message" style="rounded=1;whiteSpace=wrap;html=1;arcSize=40;fontColor=#1D3557;fillColor=#A8DADC;strokeColor=#457B9D;labelBackgroundColor=none;" vertex="1" parent="1">
          <mxGeometry x="893" y="113" width="190" height="40" as="geometry" />
        </mxCell>
        <mxCell id="BGUdlJ1mRM6hW-QfQInx-11" value="" style="edgeStyle=orthogonalEdgeStyle;html=1;verticalAlign=bottom;endArrow=classic;endSize=8;strokeColor=#457B9D;rounded=0;fontColor=default;fillColor=#A8DADC;labelBackgroundColor=none;entryX=0.5;entryY=0;entryDx=0;entryDy=0;exitX=0.5;exitY=1;exitDx=0;exitDy=0;endFill=1;" edge="1" parent="1" source="BGUdlJ1mRM6hW-QfQInx-10" target="BGUdlJ1mRM6hW-QfQInx-43">
          <mxGeometry relative="1" as="geometry">
            <mxPoint x="977" y="287" as="targetPoint" />
            <mxPoint x="977.0526315789475" y="153" as="sourcePoint" />
            <Array as="points">
              <mxPoint x="988" y="287" />
              <mxPoint x="987" y="287" />
            </Array>
          </mxGeometry>
        </mxCell>
        <mxCell id="BGUdlJ1mRM6hW-QfQInx-12" value="Enter Level" style="rounded=1;whiteSpace=wrap;html=1;arcSize=40;fontColor=#1D3557;fillColor=#A8DADC;strokeColor=#457B9D;labelBackgroundColor=none;" vertex="1" parent="1">
          <mxGeometry x="537" y="156" width="120" height="40" as="geometry" />
        </mxCell>
        <mxCell id="BGUdlJ1mRM6hW-QfQInx-13" value="" style="edgeStyle=orthogonalEdgeStyle;html=1;verticalAlign=bottom;endArrow=classic;endSize=8;strokeColor=#457B9D;rounded=0;fontColor=default;fillColor=#A8DADC;labelBackgroundColor=none;endFill=1;" edge="1" parent="1">
          <mxGeometry relative="1" as="geometry">
            <mxPoint x="597" y="232" as="targetPoint" />
            <mxPoint x="597" y="196" as="sourcePoint" />
          </mxGeometry>
        </mxCell>
        <mxCell id="BGUdlJ1mRM6hW-QfQInx-14" value="No" style="text;html=1;align=center;verticalAlign=middle;resizable=0;points=[];autosize=1;strokeColor=none;fillColor=none;fontColor=#1D3557;labelBackgroundColor=none;" vertex="1" parent="1">
          <mxGeometry x="821" y="113" width="33" height="26" as="geometry" />
        </mxCell>
        <mxCell id="BGUdlJ1mRM6hW-QfQInx-15" value="Yes" style="text;html=1;align=center;verticalAlign=middle;resizable=0;points=[];autosize=1;strokeColor=none;fillColor=none;fontColor=#1D3557;labelBackgroundColor=none;" vertex="1" parent="1">
          <mxGeometry x="654" y="113" width="38" height="26" as="geometry" />
        </mxCell>
        <mxCell id="BGUdlJ1mRM6hW-QfQInx-16" style="edgeStyle=orthogonalEdgeStyle;rounded=0;orthogonalLoop=1;jettySize=auto;html=1;entryX=0.5;entryY=0;entryDx=0;entryDy=0;strokeColor=#457B9D;fontColor=default;fillColor=#A8DADC;labelBackgroundColor=none;" edge="1" parent="1" source="BGUdlJ1mRM6hW-QfQInx-17" target="BGUdlJ1mRM6hW-QfQInx-32">
          <mxGeometry relative="1" as="geometry">
            <Array as="points">
              <mxPoint x="488" y="252" />
              <mxPoint x="488" y="628" />
              <mxPoint x="597" y="628" />
            </Array>
          </mxGeometry>
        </mxCell>
        <mxCell id="BGUdlJ1mRM6hW-QfQInx-17" value="Level in Progrees" style="rounded=1;whiteSpace=wrap;html=1;arcSize=40;fontColor=#1D3557;fillColor=#A8DADC;strokeColor=#457B9D;labelBackgroundColor=none;" vertex="1" parent="1">
          <mxGeometry x="537" y="232" width="120" height="40" as="geometry" />
        </mxCell>
        <mxCell id="BGUdlJ1mRM6hW-QfQInx-18" value="" style="edgeStyle=orthogonalEdgeStyle;html=1;verticalAlign=bottom;endArrow=classic;endSize=8;strokeColor=#457B9D;rounded=0;fontColor=default;fillColor=#A8DADC;labelBackgroundColor=none;exitX=0.5;exitY=1;exitDx=0;exitDy=0;endFill=1;entryX=0.5;entryY=0;entryDx=0;entryDy=0;" edge="1" parent="1" source="BGUdlJ1mRM6hW-QfQInx-17" target="BGUdlJ1mRM6hW-QfQInx-19">
          <mxGeometry relative="1" as="geometry">
            <mxPoint x="596" y="301" as="targetPoint" />
            <mxPoint x="596" y="277" as="sourcePoint" />
          </mxGeometry>
        </mxCell>
        <mxCell id="BGUdlJ1mRM6hW-QfQInx-19" value="Play Level" style="rounded=1;whiteSpace=wrap;html=1;arcSize=40;fontColor=#1D3557;fillColor=#A8DADC;strokeColor=#457B9D;labelBackgroundColor=none;" vertex="1" parent="1">
          <mxGeometry x="537" y="303" width="120" height="34" as="geometry" />
        </mxCell>
        <mxCell id="BGUdlJ1mRM6hW-QfQInx-20" value="" style="edgeStyle=orthogonalEdgeStyle;html=1;verticalAlign=bottom;endArrow=classic;endSize=8;strokeColor=#457B9D;rounded=0;fontColor=default;fillColor=#A8DADC;labelBackgroundColor=none;endFill=1;exitX=0.5;exitY=1;exitDx=0;exitDy=0;" edge="1" parent="1" source="BGUdlJ1mRM6hW-QfQInx-19">
          <mxGeometry relative="1" as="geometry">
            <mxPoint x="597" y="383" as="targetPoint" />
            <mxPoint x="597" y="349" as="sourcePoint" />
          </mxGeometry>
        </mxCell>
        <mxCell id="BGUdlJ1mRM6hW-QfQInx-21" style="edgeStyle=orthogonalEdgeStyle;rounded=0;orthogonalLoop=1;jettySize=auto;html=1;entryX=1;entryY=0.5;entryDx=0;entryDy=0;strokeColor=#457B9D;fontColor=default;fillColor=#A8DADC;labelBackgroundColor=none;exitX=1;exitY=0.5;exitDx=0;exitDy=0;" edge="1" parent="1" source="BGUdlJ1mRM6hW-QfQInx-22" target="BGUdlJ1mRM6hW-QfQInx-27">
          <mxGeometry relative="1" as="geometry">
            <mxPoint x="671" y="404" as="sourcePoint" />
            <Array as="points">
              <mxPoint x="657" y="400" />
              <mxPoint x="700" y="400" />
              <mxPoint x="700" y="559" />
              <mxPoint x="625" y="559" />
            </Array>
          </mxGeometry>
        </mxCell>
        <mxCell id="BGUdlJ1mRM6hW-QfQInx-22" value="Life Lost?" style="rounded=1;whiteSpace=wrap;html=1;arcSize=40;fontColor=#1D3557;fillColor=#A8DADC;strokeColor=#457B9D;labelBackgroundColor=none;" vertex="1" parent="1">
          <mxGeometry x="536.5" y="384" width="120" height="25" as="geometry" />
        </mxCell>
        <mxCell id="BGUdlJ1mRM6hW-QfQInx-23" value="" style="edgeStyle=orthogonalEdgeStyle;html=1;verticalAlign=bottom;endArrow=classic;endSize=8;strokeColor=#457B9D;rounded=0;fontColor=default;fillColor=#A8DADC;labelBackgroundColor=none;endFill=1;" edge="1" parent="1">
          <mxGeometry relative="1" as="geometry">
            <mxPoint x="597" y="454" as="targetPoint" />
            <mxPoint x="597" y="410" as="sourcePoint" />
          </mxGeometry>
        </mxCell>
        <mxCell id="BGUdlJ1mRM6hW-QfQInx-24" value="Respawn at checkpoint" style="rounded=1;whiteSpace=wrap;html=1;arcSize=40;fontColor=#1D3557;fillColor=#A8DADC;strokeColor=#457B9D;labelBackgroundColor=none;" vertex="1" parent="1">
          <mxGeometry x="521.5" y="455" width="151" height="29" as="geometry" />
        </mxCell>
        <mxCell id="BGUdlJ1mRM6hW-QfQInx-25" value="" style="edgeStyle=orthogonalEdgeStyle;html=1;verticalAlign=bottom;endArrow=classic;endSize=8;strokeColor=#457B9D;rounded=0;fontColor=default;fillColor=#A8DADC;labelBackgroundColor=none;endFill=1;" edge="1" parent="1">
          <mxGeometry relative="1" as="geometry">
            <mxPoint x="597" y="531" as="targetPoint" />
            <mxPoint x="597" y="484" as="sourcePoint" />
          </mxGeometry>
        </mxCell>
        <mxCell id="BGUdlJ1mRM6hW-QfQInx-26" style="edgeStyle=orthogonalEdgeStyle;rounded=0;orthogonalLoop=1;jettySize=auto;html=1;entryX=1;entryY=0.5;entryDx=0;entryDy=0;strokeColor=#457B9D;fontColor=default;fillColor=#A8DADC;labelBackgroundColor=none;" edge="1" parent="1" source="BGUdlJ1mRM6hW-QfQInx-27" target="BGUdlJ1mRM6hW-QfQInx-17">
          <mxGeometry relative="1" as="geometry">
            <Array as="points">
              <mxPoint x="597" y="611" />
              <mxPoint x="763" y="611" />
              <mxPoint x="763" y="252" />
            </Array>
          </mxGeometry>
        </mxCell>
        <mxCell id="BGUdlJ1mRM6hW-QfQInx-27" value="" style="rhombus;whiteSpace=wrap;html=1;strokeColor=#457B9D;fontColor=#1D3557;fillColor=#A8DADC;labelBackgroundColor=none;" vertex="1" parent="1">
          <mxGeometry x="569" y="530" width="56" height="56" as="geometry" />
        </mxCell>
        <mxCell id="BGUdlJ1mRM6hW-QfQInx-28" value="No" style="text;html=1;align=center;verticalAlign=middle;resizable=0;points=[];autosize=1;strokeColor=none;fillColor=none;fontColor=#1D3557;labelBackgroundColor=none;" vertex="1" parent="1">
          <mxGeometry x="675" y="381" width="33" height="26" as="geometry" />
        </mxCell>
        <mxCell id="BGUdlJ1mRM6hW-QfQInx-29" value="Yes" style="text;html=1;align=center;verticalAlign=middle;resizable=0;points=[];autosize=1;strokeColor=none;fillColor=none;fontColor=#1D3557;labelBackgroundColor=none;" vertex="1" parent="1">
          <mxGeometry x="591" y="414" width="38" height="26" as="geometry" />
        </mxCell>
        <mxCell id="BGUdlJ1mRM6hW-QfQInx-30" style="edgeStyle=orthogonalEdgeStyle;rounded=0;orthogonalLoop=1;jettySize=auto;html=1;entryX=0.5;entryY=0;entryDx=0;entryDy=0;strokeColor=#457B9D;fontColor=default;fillColor=#A8DADC;labelBackgroundColor=none;" edge="1" parent="1" source="BGUdlJ1mRM6hW-QfQInx-32" target="BGUdlJ1mRM6hW-QfQInx-35">
          <mxGeometry relative="1" as="geometry" />
        </mxCell>
        <mxCell id="BGUdlJ1mRM6hW-QfQInx-31" style="edgeStyle=orthogonalEdgeStyle;rounded=0;orthogonalLoop=1;jettySize=auto;html=1;entryX=0.5;entryY=0;entryDx=0;entryDy=0;strokeColor=#457B9D;fontColor=default;fillColor=#A8DADC;labelBackgroundColor=none;" edge="1" parent="1" source="BGUdlJ1mRM6hW-QfQInx-32" target="BGUdlJ1mRM6hW-QfQInx-36">
          <mxGeometry relative="1" as="geometry" />
        </mxCell>
        <mxCell id="BGUdlJ1mRM6hW-QfQInx-32" value="Level Complete?" style="shape=hexagon;perimeter=hexagonPerimeter2;whiteSpace=wrap;html=1;fixedSize=1;strokeColor=#457B9D;fontColor=#1D3557;fillColor=#A8DADC;labelBackgroundColor=none;" vertex="1" parent="1">
          <mxGeometry x="537" y="646" width="120" height="31" as="geometry" />
        </mxCell>
        <mxCell id="BGUdlJ1mRM6hW-QfQInx-33" value="No" style="text;html=1;align=center;verticalAlign=middle;resizable=0;points=[];autosize=1;strokeColor=none;fillColor=none;fontColor=#1D3557;labelBackgroundColor=none;" vertex="1" parent="1">
          <mxGeometry x="503" y="231" width="33" height="26" as="geometry" />
        </mxCell>
        <mxCell id="BGUdlJ1mRM6hW-QfQInx-34" style="edgeStyle=orthogonalEdgeStyle;rounded=0;orthogonalLoop=1;jettySize=auto;html=1;entryX=0;entryY=0.5;entryDx=0;entryDy=0;strokeColor=#457B9D;fontColor=default;fillColor=#A8DADC;labelBackgroundColor=none;" edge="1" parent="1" source="BGUdlJ1mRM6hW-QfQInx-35" target="BGUdlJ1mRM6hW-QfQInx-40">
          <mxGeometry relative="1" as="geometry">
            <Array as="points">
              <mxPoint x="446" y="771" />
            </Array>
          </mxGeometry>
        </mxCell>
        <mxCell id="BGUdlJ1mRM6hW-QfQInx-35" value="Unlock Next Level" style="rounded=1;whiteSpace=wrap;html=1;arcSize=40;fontColor=#1D3557;fillColor=#A8DADC;strokeColor=#457B9D;labelBackgroundColor=none;" vertex="1" parent="1">
          <mxGeometry x="370.5" y="707" width="151" height="25" as="geometry" />
        </mxCell>
        <mxCell id="BGUdlJ1mRM6hW-QfQInx-36" value="Retry or Exit to Menu" style="rounded=1;whiteSpace=wrap;html=1;arcSize=40;fontColor=#1D3557;fillColor=#A8DADC;strokeColor=#457B9D;labelBackgroundColor=none;" vertex="1" parent="1">
          <mxGeometry x="666" y="707" width="151" height="23" as="geometry" />
        </mxCell>
        <mxCell id="BGUdlJ1mRM6hW-QfQInx-37" value="Yes" style="text;html=1;align=center;verticalAlign=middle;resizable=0;points=[];autosize=1;strokeColor=none;fillColor=none;fontColor=#1D3557;labelBackgroundColor=none;" vertex="1" parent="1">
          <mxGeometry x="504" y="643" width="38" height="26" as="geometry" />
        </mxCell>
        <mxCell id="BGUdlJ1mRM6hW-QfQInx-38" value="No" style="text;html=1;align=center;verticalAlign=middle;resizable=0;points=[];autosize=1;strokeColor=none;fillColor=none;fontColor=#1D3557;labelBackgroundColor=none;" vertex="1" parent="1">
          <mxGeometry x="656.5" y="643" width="33" height="26" as="geometry" />
        </mxCell>
        <mxCell id="BGUdlJ1mRM6hW-QfQInx-39" style="edgeStyle=orthogonalEdgeStyle;rounded=0;orthogonalLoop=1;jettySize=auto;html=1;entryX=0;entryY=0.5;entryDx=0;entryDy=0;strokeColor=#457B9D;fontColor=default;fillColor=#A8DADC;labelBackgroundColor=none;" edge="1" parent="1" target="BGUdlJ1mRM6hW-QfQInx-43">
          <mxGeometry relative="1" as="geometry">
            <mxPoint x="597.0000000000005" y="768.9999999999995" as="sourcePoint" />
            <Array as="points">
              <mxPoint x="597" y="810" />
              <mxPoint x="959" y="810" />
            </Array>
          </mxGeometry>
        </mxCell>
        <mxCell id="BGUdlJ1mRM6hW-QfQInx-40" value="" style="rhombus;whiteSpace=wrap;html=1;strokeColor=#457B9D;fontColor=#1D3557;fillColor=#A8DADC;labelBackgroundColor=none;" vertex="1" parent="1">
          <mxGeometry x="569" y="743" width="56" height="56" as="geometry" />
        </mxCell>
        <mxCell id="BGUdlJ1mRM6hW-QfQInx-41" style="edgeStyle=orthogonalEdgeStyle;rounded=0;orthogonalLoop=1;jettySize=auto;html=1;entryX=1;entryY=0.5;entryDx=0;entryDy=0;strokeColor=#457B9D;fontColor=default;fillColor=#A8DADC;labelBackgroundColor=none;" edge="1" parent="1" source="BGUdlJ1mRM6hW-QfQInx-36" target="BGUdlJ1mRM6hW-QfQInx-40">
          <mxGeometry relative="1" as="geometry">
            <Array as="points">
              <mxPoint x="742" y="771" />
            </Array>
          </mxGeometry>
        </mxCell>
        <mxCell id="BGUdlJ1mRM6hW-QfQInx-42" style="edgeStyle=orthogonalEdgeStyle;rounded=0;orthogonalLoop=1;jettySize=auto;html=1;exitX=0.5;exitY=1;exitDx=0;exitDy=0;entryX=0.5;entryY=0;entryDx=0;entryDy=0;strokeColor=#457B9D;fontColor=default;fillColor=#A8DADC;labelBackgroundColor=none;" edge="1" parent="1">
          <mxGeometry relative="1" as="geometry">
            <mxPoint x="986.5" y="839" as="sourcePoint" />
            <mxPoint x="987.5" y="881" as="targetPoint" />
            <Array as="points">
              <mxPoint x="986.5" y="881" />
            </Array>
          </mxGeometry>
        </mxCell>
        <mxCell id="BGUdlJ1mRM6hW-QfQInx-43" value="" style="rhombus;whiteSpace=wrap;html=1;strokeColor=#457B9D;fontColor=#1D3557;fillColor=#A8DADC;labelBackgroundColor=none;" vertex="1" parent="1">
          <mxGeometry x="959" y="783" width="56" height="56" as="geometry" />
        </mxCell>
        <mxCell id="BGUdlJ1mRM6hW-QfQInx-44" value="Yes" style="text;html=1;align=center;verticalAlign=middle;resizable=0;points=[];autosize=1;strokeColor=none;fillColor=none;fontColor=#1D3557;labelBackgroundColor=none;" vertex="1" parent="1">
          <mxGeometry x="591" y="267" width="38" height="26" as="geometry" />
        </mxCell>
        <mxCell id="BGUdlJ1mRM6hW-QfQInx-45" value="" style="ellipse;html=1;shape=endState;fillColor=#A8DADC;strokeColor=#457B9D;fontColor=#1D3557;labelBackgroundColor=none;" vertex="1" parent="1">
          <mxGeometry x="973" y="947" width="30" height="30" as="geometry" />
        </mxCell>
        <mxCell id="BGUdlJ1mRM6hW-QfQInx-46" style="edgeStyle=orthogonalEdgeStyle;rounded=0;orthogonalLoop=1;jettySize=auto;html=1;entryX=0.5;entryY=0;entryDx=0;entryDy=0;strokeColor=#457B9D;fontColor=default;fillColor=#A8DADC;labelBackgroundColor=none;" edge="1" parent="1">
          <mxGeometry relative="1" as="geometry">
            <mxPoint x="987" y="911" as="sourcePoint" />
            <mxPoint x="988" y="947" as="targetPoint" />
          </mxGeometry>
        </mxCell>
        <mxCell id="BGUdlJ1mRM6hW-QfQInx-47" value="End Game" style="rounded=1;whiteSpace=wrap;html=1;arcSize=40;fontColor=#1D3557;fillColor=#A8DADC;strokeColor=#457B9D;labelBackgroundColor=none;" vertex="1" parent="1">
          <mxGeometry x="936.25" y="881" width="103.5" height="30" as="geometry" />
        </mxCell>
        <UserObject label="" plantUmlData="{&#xa;  &quot;data&quot;: &quot;@startuml\n[*] --&gt; StartGame : Start\nStartGame --&gt; SelectLevel : Level Selection\n\nstate \&quot;Level Gameplay\&quot; as LevelGameplay {\n  SelectLevel --&gt; LevelAvailable : Level exists\n  LevelAvailable --&gt; EnterLevel : Enter\n  EnterLevel --&gt; PlayLevel : Start Level\n  PlayLevel --&gt; LifeLost : Lose Life\n  LifeLost --&gt; RespawnAtCheckpoint : Respawn\n  RespawnAtCheckpoint --&gt; PlayLevel : Continue\n  PlayLevel --&gt; LevelComplete : Complete Level\n  LevelComplete --&gt; UnlockNextLevel : Unlock next\n  UnlockNextLevel --&gt; [*] : End\n  LevelComplete --&gt; RetryOrExitToMenu : Retry or Exit\n  RetryOrExitToMenu --&gt; [*] : End\n}\n\nLevelAvailable --&gt; DisplayUnavailableMessage : Level locked\nDisplayUnavailableMessage --&gt; [*] : End\n@enduml\n&quot;,&#xa;  &quot;format&quot;: &quot;svg&quot;&#xa;}" id="BGUdlJ1mRM6hW-QfQInx-48">
          <mxCell style="shape=image;noLabel=1;verticalAlign=top;aspect=fixed;imageAspect=0;image=data:image/svg+xml,PD94bWwgdmVyc2lvbj0iMS4wIiBlbmNvZGluZz0idXMtYXNjaWkiIHN0YW5kYWxvbmU9Im5vIj8+PHN2ZyB4bWxucz0iaHR0cDovL3d3dy53My5vcmcvMjAwMC9zdmciIHhtbG5zOnhsaW5rPSJodHRwOi8vd3d3LnczLm9yZy8xOTk5L3hsaW5rIiBjb250ZW50U3R5bGVUeXBlPSJ0ZXh0L2NzcyIgaGVpZ2h0PSIxMDM5cHgiIHByZXNlcnZlQXNwZWN0UmF0aW89Im5vbmUiIHN0eWxlPSJ3aWR0aDo3NDVweDtoZWlnaHQ6MTAzOXB4O2JhY2tncm91bmQ6I0ZGRkZGRjsiIHZlcnNpb249IjEuMSIgdmlld0JveD0iMCAwIDc0NSAxMDM5IiB3aWR0aD0iNzQ1cHgiIHpvb21BbmRQYW49Im1hZ25pZnkiPjxkZWZzLz48Zz48IS0tY2x1c3RlciBMZXZlbEdhbWVwbGF5LS0+PGcgaWQ9ImNsdXN0ZXJfTGV2ZWxHYW1lcGxheSI+PHBhdGggZD0iTTE5LjUsMzM3IEw1MTUuNSwzMzcgQTEyLjUsMTIuNSAwIDAgMSA1MjgsMzQ5LjUgTDUyOCwzNTYuOTg0NCBMNywzNTYuOTg0NCBMNywzNDkuNSBBMTIuNSwxMi41IDAgMCAxIDE5LjUsMzM3ICIgZmlsbD0iI0YxRjFGMSIgc3R5bGU9InN0cm9rZTojRjFGMUYxO3N0cm9rZS13aWR0aDoxLjA7Ii8+PHJlY3QgZmlsbD0ibm9uZSIgaGVpZ2h0PSI2OTYiIHJ4PSIxMi41IiByeT0iMTIuNSIgc3R5bGU9InN0cm9rZTojMTgxODE4O3N0cm9rZS13aWR0aDowLjU7IiB3aWR0aD0iNTIxIiB4PSI3IiB5PSIzMzciLz48bGluZSBzdHlsZT0ic3Ryb2tlOiMxODE4MTg7c3Ryb2tlLXdpZHRoOjAuNTsiIHgxPSI3IiB4Mj0iNTI4IiB5MT0iMzU2Ljk4NDQiIHkyPSIzNTYuOTg0NCIvPjx0ZXh0IGZpbGw9IiMwMDAwMDAiIGZvbnQtZmFtaWx5PSJzYW5zLXNlcmlmIiBmb250LXNpemU9IjE0IiBsZW5ndGhBZGp1c3Q9InNwYWNpbmciIHRleHRMZW5ndGg9Ijk5IiB4PSIyMTgiIHk9IjM1NC4yMzQ0Ij5MZXZlbCBHYW1lcGxheTwvdGV4dD48L2c+PGcgaWQ9IkxldmVsR2FtZXBsYXkuTGV2ZWxBdmFpbGFibGUiPjxyZWN0IGZpbGw9IiNGMUYxRjEiIGhlaWdodD0iNTAiIHJ4PSIxMi41IiByeT0iMTIuNSIgc3R5bGU9InN0cm9rZTojMTgxODE4O3N0cm9rZS13aWR0aDowLjU7IiB3aWR0aD0iMTE4IiB4PSIzOTIiIHk9IjM3MCIvPjxsaW5lIHN0eWxlPSJzdHJva2U6IzE4MTgxODtzdHJva2Utd2lkdGg6MC41OyIgeDE9IjM5MiIgeDI9IjUxMCIgeTE9IjM5NC45ODQ0IiB5Mj0iMzk0Ljk4NDQiLz48dGV4dCBmaWxsPSIjMDAwMDAwIiBmb250LWZhbWlseT0ic2Fucy1zZXJpZiIgZm9udC1zaXplPSIxNCIgbGVuZ3RoQWRqdXN0PSJzcGFjaW5nIiB0ZXh0TGVuZ3RoPSI5OCIgeD0iNDAyIiB5PSIzODguMjM0NCI+TGV2ZWxBdmFpbGFibGU8L3RleHQ+PC9nPjxnIGlkPSJMZXZlbEdhbWVwbGF5LkVudGVyTGV2ZWwiPjxyZWN0IGZpbGw9IiNGMUYxRjEiIGhlaWdodD0iNTAiIHJ4PSIxMi41IiByeT0iMTIuNSIgc3R5bGU9InN0cm9rZTojMTgxODE4O3N0cm9rZS13aWR0aDowLjU7IiB3aWR0aD0iOTAiIHg9IjMzMCIgeT0iNDk1Ii8+PGxpbmUgc3R5bGU9InN0cm9rZTojMTgxODE4O3N0cm9rZS13aWR0aDowLjU7IiB4MT0iMzMwIiB4Mj0iNDIwIiB5MT0iNTE5Ljk4NDQiIHkyPSI1MTkuOTg0NCIvPjx0ZXh0IGZpbGw9IiMwMDAwMDAiIGZvbnQtZmFtaWx5PSJzYW5zLXNlcmlmIiBmb250LXNpemU9IjE0IiBsZW5ndGhBZGp1c3Q9InNwYWNpbmciIHRleHRMZW5ndGg9IjcwIiB4PSIzNDAiIHk9IjUxMy4yMzQ0Ij5FbnRlckxldmVsPC90ZXh0PjwvZz48ZyBpZD0iTGV2ZWxHYW1lcGxheS5QbGF5TGV2ZWwiPjxyZWN0IGZpbGw9IiNGMUYxRjEiIGhlaWdodD0iNTAiIHJ4PSIxMi41IiByeT0iMTIuNSIgc3R5bGU9InN0cm9rZTojMTgxODE4O3N0cm9rZS13aWR0aDowLjU7IiB3aWR0aD0iODMiIHg9IjMwMC41IiB5PSI2MjAiLz48bGluZSBzdHlsZT0ic3Ryb2tlOiMxODE4MTg7c3Ryb2tlLXdpZHRoOjAuNTsiIHgxPSIzMDAuNSIgeDI9IjM4My41IiB5MT0iNjQ0Ljk4NDQiIHkyPSI2NDQuOTg0NCIvPjx0ZXh0IGZpbGw9IiMwMDAwMDAiIGZvbnQtZmFtaWx5PSJzYW5zLXNlcmlmIiBmb250LXNpemU9IjE0IiBsZW5ndGhBZGp1c3Q9InNwYWNpbmciIHRleHRMZW5ndGg9IjYzIiB4PSIzMTAuNSIgeT0iNjM4LjIzNDQiPlBsYXlMZXZlbDwvdGV4dD48L2c+PGcgaWQ9IkxldmVsR2FtZXBsYXkuTGlmZUxvc3QiPjxyZWN0IGZpbGw9IiNGMUYxRjEiIGhlaWdodD0iNTAiIHJ4PSIxMi41IiByeT0iMTIuNSIgc3R5bGU9InN0cm9rZTojMTgxODE4O3N0cm9rZS13aWR0aDowLjU7IiB3aWR0aD0iNzYiIHg9IjEzNyIgeT0iNzQ1Ii8+PGxpbmUgc3R5bGU9InN0cm9rZTojMTgxODE4O3N0cm9rZS13aWR0aDowLjU7IiB4MT0iMTM3IiB4Mj0iMjEzIiB5MT0iNzY5Ljk4NDQiIHkyPSI3NjkuOTg0NCIvPjx0ZXh0IGZpbGw9IiMwMDAwMDAiIGZvbnQtZmFtaWx5PSJzYW5zLXNlcmlmIiBmb250LXNpemU9IjE0IiBsZW5ndGhBZGp1c3Q9InNwYWNpbmciIHRleHRMZW5ndGg9IjU2IiB4PSIxNDciIHk9Ijc2My4yMzQ0Ij5MaWZlTG9zdDwvdGV4dD48L2c+PGcgaWQ9IkxldmVsR2FtZXBsYXkuUmVzcGF3bkF0Q2hlY2twb2ludCI+PHJlY3QgZmlsbD0iI0YxRjFGMSIgaGVpZ2h0PSI1MCIgcng9IjEyLjUiIHJ5PSIxMi41IiBzdHlsZT0ic3Ryb2tlOiMxODE4MTg7c3Ryb2tlLXdpZHRoOjAuNTsiIHdpZHRoPSIxNTQiIHg9IjIzIiB5PSI4NzAiLz48bGluZSBzdHlsZT0ic3Ryb2tlOiMxODE4MTg7c3Ryb2tlLXdpZHRoOjAuNTsiIHgxPSIyMyIgeDI9IjE3NyIgeTE9Ijg5NC45ODQ0IiB5Mj0iODk0Ljk4NDQiLz48dGV4dCBmaWxsPSIjMDAwMDAwIiBmb250LWZhbWlseT0ic2Fucy1zZXJpZiIgZm9udC1zaXplPSIxNCIgbGVuZ3RoQWRqdXN0PSJzcGFjaW5nIiB0ZXh0TGVuZ3RoPSIxMzQiIHg9IjMzIiB5PSI4ODguMjM0NCI+UmVzcGF3bkF0Q2hlY2twb2ludDwvdGV4dD48L2c+PGcgaWQ9IkxldmVsR2FtZXBsYXkuTGV2ZWxDb21wbGV0ZSI+PHJlY3QgZmlsbD0iI0YxRjFGMSIgaGVpZ2h0PSI1MCIgcng9IjEyLjUiIHJ5PSIxMi41IiBzdHlsZT0ic3Ryb2tlOiMxODE4MTg7c3Ryb2tlLXdpZHRoOjAuNTsiIHdpZHRoPSIxMTIiIHg9IjI3NCIgeT0iNzQ1Ii8+PGxpbmUgc3R5bGU9InN0cm9rZTojMTgxODE4O3N0cm9rZS13aWR0aDowLjU7IiB4MT0iMjc0IiB4Mj0iMzg2IiB5MT0iNzY5Ljk4NDQiIHkyPSI3NjkuOTg0NCIvPjx0ZXh0IGZpbGw9IiMwMDAwMDAiIGZvbnQtZmFtaWx5PSJzYW5zLXNlcmlmIiBmb250LXNpemU9IjE0IiBsZW5ndGhBZGp1c3Q9InNwYWNpbmciIHRleHRMZW5ndGg9IjkyIiB4PSIyODQiIHk9Ijc2My4yMzQ0Ij5MZXZlbENvbXBsZXRlPC90ZXh0PjwvZz48ZyBpZD0iTGV2ZWxHYW1lcGxheS5VbmxvY2tOZXh0TGV2ZWwiPjxyZWN0IGZpbGw9IiNGMUYxRjEiIGhlaWdodD0iNTAiIHJ4PSIxMi41IiByeT0iMTIuNSIgc3R5bGU9InN0cm9rZTojMTgxODE4O3N0cm9rZS13aWR0aDowLjU7IiB3aWR0aD0iMTI1IiB4PSIyMTIuNSIgeT0iODcwIi8+PGxpbmUgc3R5bGU9InN0cm9rZTojMTgxODE4O3N0cm9rZS13aWR0aDowLjU7IiB4MT0iMjEyLjUiIHgyPSIzMzcuNSIgeTE9Ijg5NC45ODQ0IiB5Mj0iODk0Ljk4NDQiLz48dGV4dCBmaWxsPSIjMDAwMDAwIiBmb250LWZhbWlseT0ic2Fucy1zZXJpZiIgZm9udC1zaXplPSIxNCIgbGVuZ3RoQWRqdXN0PSJzcGFjaW5nIiB0ZXh0TGVuZ3RoPSIxMDUiIHg9IjIyMi41IiB5PSI4ODguMjM0NCI+VW5sb2NrTmV4dExldmVsPC90ZXh0PjwvZz48ZWxsaXBzZSBjeD0iMzU4IiBjeT0iMTAwNiIgZmlsbD0ibm9uZSIgcng9IjExIiByeT0iMTEiIHN0eWxlPSJzdHJva2U6IzIyMjIyMjtzdHJva2Utd2lkdGg6MS4wOyIvPjxlbGxpcHNlIGN4PSIzNTgiIGN5PSIxMDA2IiBmaWxsPSIjMjIyMjIyIiByeD0iNiIgcnk9IjYiIHN0eWxlPSJzdHJva2U6IzIyMjIyMjtzdHJva2Utd2lkdGg6MS4wOyIvPjxnIGlkPSJMZXZlbEdhbWVwbGF5LlJldHJ5T3JFeGl0VG9NZW51Ij48cmVjdCBmaWxsPSIjRjFGMUYxIiBoZWlnaHQ9IjUwIiByeD0iMTIuNSIgcnk9IjEyLjUiIHN0eWxlPSJzdHJva2U6IzE4MTgxODtzdHJva2Utd2lkdGg6MC41OyIgd2lkdGg9IjEzOSIgeD0iMzcyLjUiIHk9Ijg3MCIvPjxsaW5lIHN0eWxlPSJzdHJva2U6IzE4MTgxODtzdHJva2Utd2lkdGg6MC41OyIgeDE9IjM3Mi41IiB4Mj0iNTExLjUiIHkxPSI4OTQuOTg0NCIgeTI9Ijg5NC45ODQ0Ii8+PHRleHQgZmlsbD0iIzAwMDAwMCIgZm9udC1mYW1pbHk9InNhbnMtc2VyaWYiIGZvbnQtc2l6ZT0iMTQiIGxlbmd0aEFkanVzdD0ic3BhY2luZyIgdGV4dExlbmd0aD0iMTE5IiB4PSIzODIuNSIgeT0iODg4LjIzNDQiPlJldHJ5T3JFeGl0VG9NZW51PC90ZXh0PjwvZz48ZWxsaXBzZSBjeD0iNDUxIiBjeT0iMTYiIGZpbGw9IiMyMjIyMjIiIHJ4PSIxMCIgcnk9IjEwIiBzdHlsZT0ic3Ryb2tlOiMyMjIyMjI7c3Ryb2tlLXdpZHRoOjEuMDsiLz48ZyBpZD0iU3RhcnRHYW1lIj48cmVjdCBmaWxsPSIjRjFGMUYxIiBoZWlnaHQ9IjUwIiByeD0iMTIuNSIgcnk9IjEyLjUiIHN0eWxlPSJzdHJva2U6IzE4MTgxODtzdHJva2Utd2lkdGg6MC41OyIgd2lkdGg9Ijg0IiB4PSI0MDkiIHk9IjEwMSIvPjxsaW5lIHN0eWxlPSJzdHJva2U6IzE4MTgxODtzdHJva2Utd2lkdGg6MC41OyIgeDE9IjQwOSIgeDI9IjQ5MyIgeTE9IjEyNS45ODQ0IiB5Mj0iMTI1Ljk4NDQiLz48dGV4dCBmaWxsPSIjMDAwMDAwIiBmb250LWZhbWlseT0ic2Fucy1zZXJpZiIgZm9udC1zaXplPSIxNCIgbGVuZ3RoQWRqdXN0PSJzcGFjaW5nIiB0ZXh0TGVuZ3RoPSI2NCIgeD0iNDE5IiB5PSIxMTkuMjM0NCI+U3RhcnRHYW1lPC90ZXh0PjwvZz48ZyBpZD0iU2VsZWN0TGV2ZWwiPjxyZWN0IGZpbGw9IiNGMUYxRjEiIGhlaWdodD0iNTAiIHJ4PSIxMi41IiByeT0iMTIuNSIgc3R5bGU9InN0cm9rZTojMTgxODE4O3N0cm9rZS13aWR0aDowLjU7IiB3aWR0aD0iOTciIHg9IjQwMi41IiB5PSIyMjYiLz48bGluZSBzdHlsZT0ic3Ryb2tlOiMxODE4MTg7c3Ryb2tlLXdpZHRoOjAuNTsiIHgxPSI0MDIuNSIgeDI9IjQ5OS41IiB5MT0iMjUwLjk4NDQiIHkyPSIyNTAuOTg0NCIvPjx0ZXh0IGZpbGw9IiMwMDAwMDAiIGZvbnQtZmFtaWx5PSJzYW5zLXNlcmlmIiBmb250LXNpemU9IjE0IiBsZW5ndGhBZGp1c3Q9InNwYWNpbmciIHRleHRMZW5ndGg9Ijc3IiB4PSI0MTIuNSIgeT0iMjQ0LjIzNDQiPlNlbGVjdExldmVsPC90ZXh0PjwvZz48ZyBpZD0iRGlzcGxheVVuYXZhaWxhYmxlTWVzc2FnZSI+PHJlY3QgZmlsbD0iI0YxRjFGMSIgaGVpZ2h0PSI1MCIgcng9IjEyLjUiIHJ5PSIxMi41IiBzdHlsZT0ic3Ryb2tlOiMxODE4MTg7c3Ryb2tlLXdpZHRoOjAuNTsiIHdpZHRoPSIxOTUiIHg9IjU0My41IiB5PSI0OTUiLz48bGluZSBzdHlsZT0ic3Ryb2tlOiMxODE4MTg7c3Ryb2tlLXdpZHRoOjAuNTsiIHgxPSI1NDMuNSIgeDI9IjczOC41IiB5MT0iNTE5Ljk4NDQiIHkyPSI1MTkuOTg0NCIvPjx0ZXh0IGZpbGw9IiMwMDAwMDAiIGZvbnQtZmFtaWx5PSJzYW5zLXNlcmlmIiBmb250LXNpemU9IjE0IiBsZW5ndGhBZGp1c3Q9InNwYWNpbmciIHRleHRMZW5ndGg9IjE3NSIgeD0iNTUzLjUiIHk9IjUxMy4yMzQ0Ij5EaXNwbGF5VW5hdmFpbGFibGVNZXNzYWdlPC90ZXh0PjwvZz48ZWxsaXBzZSBjeD0iNjQxIiBjeT0iNjQ1IiBmaWxsPSJub25lIiByeD0iMTEiIHJ5PSIxMSIgc3R5bGU9InN0cm9rZTojMjIyMjIyO3N0cm9rZS13aWR0aDoxLjA7Ii8+PGVsbGlwc2UgY3g9IjY0MSIgY3k9IjY0NSIgZmlsbD0iIzIyMjIyMiIgcng9IjYiIHJ5PSI2IiBzdHlsZT0ic3Ryb2tlOiMyMjIyMjI7c3Ryb2tlLXdpZHRoOjEuMDsiLz48IS0tbGluayAqc3RhcnQqIHRvIFN0YXJ0R2FtZS0tPjxnIGlkPSJsaW5rXypzdGFydCpfU3RhcnRHYW1lIj48cGF0aCBkPSJNNDUxLDI2LjIxIEM0NTEsNDIuNTMgNDUxLDcxLjA0IDQ1MSw5NC42MyAiIGZpbGw9Im5vbmUiIGlkPSIqc3RhcnQqLXRvLVN0YXJ0R2FtZSIgc3R5bGU9InN0cm9rZTojMTgxODE4O3N0cm9rZS13aWR0aDoxLjA7Ii8+PHBvbHlnb24gZmlsbD0iIzE4MTgxOCIgcG9pbnRzPSI0NTEsMTAwLjYzLDQ1NSw5MS42Myw0NTEsOTUuNjMsNDQ3LDkxLjYzLDQ1MSwxMDAuNjMiIHN0eWxlPSJzdHJva2U6IzE4MTgxODtzdHJva2Utd2lkdGg6MS4wOyIvPjx0ZXh0IGZpbGw9IiMwMDAwMDAiIGZvbnQtZmFtaWx5PSJzYW5zLXNlcmlmIiBmb250LXNpemU9IjEzIiBsZW5ndGhBZGp1c3Q9InNwYWNpbmciIHRleHRMZW5ndGg9IjMzIiB4PSI0NTIiIHk9IjY5LjI4OTEiPlN0YXJ0PC90ZXh0PjwvZz48IS0tbGluayBTdGFydEdhbWUgdG8gU2VsZWN0TGV2ZWwtLT48ZyBpZD0ibGlua19TdGFydEdhbWVfU2VsZWN0TGV2ZWwiPjxwYXRoIGQ9Ik00NTEsMTUxLjAxIEM0NTEsMTcyLjU0IDQ1MSwxOTcuOTkgNDUxLDIxOS42MyAiIGZpbGw9Im5vbmUiIGlkPSJTdGFydEdhbWUtdG8tU2VsZWN0TGV2ZWwiIHN0eWxlPSJzdHJva2U6IzE4MTgxODtzdHJva2Utd2lkdGg6MS4wOyIvPjxwb2x5Z29uIGZpbGw9IiMxODE4MTgiIHBvaW50cz0iNDUxLDIyNS42Myw0NTUsMjE2LjYzLDQ1MSwyMjAuNjMsNDQ3LDIxNi42Myw0NTEsMjI1LjYzIiBzdHlsZT0ic3Ryb2tlOiMxODE4MTg7c3Ryb2tlLXdpZHRoOjEuMDsiLz48dGV4dCBmaWxsPSIjMDAwMDAwIiBmb250LWZhbWlseT0ic2Fucy1zZXJpZiIgZm9udC1zaXplPSIxMyIgbGVuZ3RoQWRqdXN0PSJzcGFjaW5nIiB0ZXh0TGVuZ3RoPSIxMDEiIHg9IjQ1MiIgeT0iMTk0LjI4OTEiPkxldmVsIFNlbGVjdGlvbjwvdGV4dD48L2c+PCEtLWxpbmsgU2VsZWN0TGV2ZWwgdG8gTGV2ZWxBdmFpbGFibGUtLT48ZyBpZD0ibGlua19TZWxlY3RMZXZlbF9MZXZlbEF2YWlsYWJsZSI+PHBhdGggZD0iTTQ1MSwyNzYuMDkgQzQ1MSwzMDIuMiA0NTEsMzM3LjY0IDQ1MSwzNjMuNzkgIiBmaWxsPSJub25lIiBpZD0iU2VsZWN0TGV2ZWwtdG8tTGV2ZWxBdmFpbGFibGUiIHN0eWxlPSJzdHJva2U6IzE4MTgxODtzdHJva2Utd2lkdGg6MS4wOyIvPjxwb2x5Z29uIGZpbGw9IiMxODE4MTgiIHBvaW50cz0iNDUxLDM2OS43OSw0NTUsMzYwLjc5LDQ1MSwzNjQuNzksNDQ3LDM2MC43OSw0NTEsMzY5Ljc5IiBzdHlsZT0ic3Ryb2tlOiMxODE4MTg7c3Ryb2tlLXdpZHRoOjEuMDsiLz48dGV4dCBmaWxsPSIjMDAwMDAwIiBmb250LWZhbWlseT0ic2Fucy1zZXJpZiIgZm9udC1zaXplPSIxMyIgbGVuZ3RoQWRqdXN0PSJzcGFjaW5nIiB0ZXh0TGVuZ3RoPSI4MSIgeD0iNDUyIiB5PSIzMTkuMjg5MSI+TGV2ZWwgZXhpc3RzPC90ZXh0PjwvZz48IS0tbGluayBMZXZlbEF2YWlsYWJsZSB0byBFbnRlckxldmVsLS0+PGcgaWQ9ImxpbmtfTGV2ZWxBdmFpbGFibGVfRW50ZXJMZXZlbCI+PHBhdGggZD0iTTQzNi4xNyw0MjAuMDEgQzQyMi44Niw0NDEuNTQgNDA2LjU4MzcsNDY3Ljg4NTYgMzkzLjIxMzcsNDg5LjUyNTYgIiBmaWxsPSJub25lIiBpZD0iTGV2ZWxBdmFpbGFibGUtdG8tRW50ZXJMZXZlbCIgc3R5bGU9InN0cm9rZTojMTgxODE4O3N0cm9rZS13aWR0aDoxLjA7Ii8+PHBvbHlnb24gZmlsbD0iIzE4MTgxOCIgcG9pbnRzPSIzOTAuMDYsNDk0LjYzLDM5OC4xOTM0LDQ4OS4wNzU5LDM5Mi42ODgxLDQ5MC4zNzY0LDM5MS4zODc2LDQ4NC44NzEsMzkwLjA2LDQ5NC42MyIgc3R5bGU9InN0cm9rZTojMTgxODE4O3N0cm9rZS13aWR0aDoxLjA7Ii8+PHRleHQgZmlsbD0iIzAwMDAwMCIgZm9udC1mYW1pbHk9InNhbnMtc2VyaWYiIGZvbnQtc2l6ZT0iMTMiIGxlbmd0aEFkanVzdD0ic3BhY2luZyIgdGV4dExlbmd0aD0iMzQiIHg9IjQxOSIgeT0iNDYzLjI4OTEiPkVudGVyPC90ZXh0PjwvZz48IS0tbGluayBFbnRlckxldmVsIHRvIFBsYXlMZXZlbC0tPjxnIGlkPSJsaW5rX0VudGVyTGV2ZWxfUGxheUxldmVsIj48cGF0aCBkPSJNMzY4LjU2LDU0NS4wMSBDMzYyLjc4LDU2Ni41NCAzNTUuODkzMyw1OTIuMTk0NiAzNTAuMDkzMyw2MTMuODM0NiAiIGZpbGw9Im5vbmUiIGlkPSJFbnRlckxldmVsLXRvLVBsYXlMZXZlbCIgc3R5bGU9InN0cm9rZTojMTgxODE4O3N0cm9rZS13aWR0aDoxLjA7Ii8+PHBvbHlnb24gZmlsbD0iIzE4MTgxOCIgcG9pbnRzPSIzNDguNTQsNjE5LjYzLDM1NC43MzM2LDYxMS45NzI0LDM0OS44MzQ0LDYxNC44MDA1LDM0Ny4wMDYzLDYwOS45MDEzLDM0OC41NCw2MTkuNjMiIHN0eWxlPSJzdHJva2U6IzE4MTgxODtzdHJva2Utd2lkdGg6MS4wOyIvPjx0ZXh0IGZpbGw9IiMwMDAwMDAiIGZvbnQtZmFtaWx5PSJzYW5zLXNlcmlmIiBmb250LXNpemU9IjEzIiBsZW5ndGhBZGp1c3Q9InNwYWNpbmciIHRleHRMZW5ndGg9Ijc0IiB4PSIzNjIiIHk9IjU4OC4yODkxIj5TdGFydCBMZXZlbDwvdGV4dD48L2c+PCEtLWxpbmsgUGxheUxldmVsIHRvIExpZmVMb3N0LS0+PGcgaWQ9ImxpbmtfUGxheUxldmVsX0xpZmVMb3N0Ij48cGF0aCBkPSJNMzA2LjksNjcwLjE1IEMyOTMuNjcsNjc5LjM3IDI3OC41Niw2OTAuMDUgMjY1LDcwMCBDMjQ1LjE2LDcxNC41NiAyMjcuOTcxMyw3MjcuNjczIDIxMC43MzEzLDc0MS4wNDMgIiBmaWxsPSJub25lIiBpZD0iUGxheUxldmVsLXRvLUxpZmVMb3N0IiBzdHlsZT0ic3Ryb2tlOiMxODE4MTg7c3Ryb2tlLXdpZHRoOjEuMDsiLz48cG9seWdvbiBmaWxsPSIjMTgxODE4IiBwb2ludHM9IjIwNS45OSw3NDQuNzIsMjE1LjU1MzMsNzQyLjM2NTQsMjA5Ljk0MTEsNzQxLjY1NTksMjEwLjY1MDYsNzM2LjA0MzcsMjA1Ljk5LDc0NC43MiIgc3R5bGU9InN0cm9rZTojMTgxODE4O3N0cm9rZS13aWR0aDoxLjA7Ii8+PHRleHQgZmlsbD0iIzAwMDAwMCIgZm9udC1mYW1pbHk9InNhbnMtc2VyaWYiIGZvbnQtc2l6ZT0iMTMiIGxlbmd0aEFkanVzdD0ic3BhY2luZyIgdGV4dExlbmd0aD0iNjEiIHg9IjI2NiIgeT0iNzEzLjI4OTEiPkxvc2UgTGlmZTwvdGV4dD48L2c+PCEtLWxpbmsgTGlmZUxvc3QgdG8gUmVzcGF3bkF0Q2hlY2twb2ludC0tPjxnIGlkPSJsaW5rX0xpZmVMb3N0X1Jlc3Bhd25BdENoZWNrcG9pbnQiPjxwYXRoIGQ9Ik0xNjAuMzYsNzk1LjAxIEMxNDcuMjMsODE2LjU0IDEzMS4xNzI4LDg0Mi44NjY3IDExNy45ODI4LDg2NC41MDY3ICIgZmlsbD0ibm9uZSIgaWQ9IkxpZmVMb3N0LXRvLVJlc3Bhd25BdENoZWNrcG9pbnQiIHN0eWxlPSJzdHJva2U6IzE4MTgxODtzdHJva2Utd2lkdGg6MS4wOyIvPjxwb2x5Z29uIGZpbGw9IiMxODE4MTgiIHBvaW50cz0iMTE0Ljg2LDg2OS42MywxMjIuOTU5Nyw4NjQuMDI2OSwxMTcuNDYyMyw4NjUuMzYwNiwxMTYuMTI4Niw4NTkuODYzMiwxMTQuODYsODY5LjYzIiBzdHlsZT0ic3Ryb2tlOiMxODE4MTg7c3Ryb2tlLXdpZHRoOjEuMDsiLz48dGV4dCBmaWxsPSIjMDAwMDAwIiBmb250LWZhbWlseT0ic2Fucy1zZXJpZiIgZm9udC1zaXplPSIxMyIgbGVuZ3RoQWRqdXN0PSJzcGFjaW5nIiB0ZXh0TGVuZ3RoPSI0OCIgeD0iMTQzIiB5PSI4MzguMjg5MSI+UmVzcGF3bjwvdGV4dD48L2c+PCEtLWxpbmsgUmVzcGF3bkF0Q2hlY2twb2ludCB0byBQbGF5TGV2ZWwtLT48ZyBpZD0ibGlua19SZXNwYXduQXRDaGVja3BvaW50X1BsYXlMZXZlbCI+PHBhdGggZD0iTTE3Ny4wNyw4NzMuNjMgQzE4My4xMSw4NzIuMzEgMTg5LjE0LDg3MS4wOCAxOTUsODcwIEMyNTEuMzMsODU5LjYzIDQxMi45Myw4ODIuNzkgNDUxLDg0MCBDNDkyLjQ2LDc5My4zOSA0NzQuOTYsNzUyLjMzIDQ0MSw3MDAgQzQyNy44NCw2NzkuNzIgNDA5LjkwMDksNjY4LjY2ODMgMzg5LjEwMDksNjYwLjM0ODMgIiBmaWxsPSJub25lIiBpZD0iUmVzcGF3bkF0Q2hlY2twb2ludC10by1QbGF5TGV2ZWwiIHN0eWxlPSJzdHJva2U6IzE4MTgxODtzdHJva2Utd2lkdGg6MS4wOyIvPjxwb2x5Z29uIGZpbGw9IiMxODE4MTgiIHBvaW50cz0iMzgzLjUzLDY1OC4xMiwzOTAuNDAwNyw2NjUuMTc2NCwzODguMTcyNCw2NTkuOTc3LDM5My4zNzE5LDY1Ny43NDg2LDM4My41Myw2NTguMTIiIHN0eWxlPSJzdHJva2U6IzE4MTgxODtzdHJva2Utd2lkdGg6MS4wOyIvPjx0ZXh0IGZpbGw9IiMwMDAwMDAiIGZvbnQtZmFtaWx5PSJzYW5zLXNlcmlmIiBmb250LXNpemU9IjEzIiBsZW5ndGhBZGp1c3Q9InNwYWNpbmciIHRleHRMZW5ndGg9IjU0IiB4PSI0NzciIHk9Ijc3NS43ODkxIj5Db250aW51ZTwvdGV4dD48L2c+PCEtLWxpbmsgUGxheUxldmVsIHRvIExldmVsQ29tcGxldGUtLT48ZyBpZD0ibGlua19QbGF5TGV2ZWxfTGV2ZWxDb21wbGV0ZSI+PHBhdGggZD0iTTMzOS42Niw2NzAuMDEgQzMzNy41Niw2OTEuNTQgMzM1LjA3MjMsNzE3LjAxODMgMzMyLjk2MjMsNzM4LjY1ODMgIiBmaWxsPSJub25lIiBpZD0iUGxheUxldmVsLXRvLUxldmVsQ29tcGxldGUiIHN0eWxlPSJzdHJva2U6IzE4MTgxODtzdHJva2Utd2lkdGg6MS4wOyIvPjxwb2x5Z29uIGZpbGw9IiMxODE4MTgiIHBvaW50cz0iMzMyLjM4LDc0NC42MywzMzcuMjM0NSw3MzYuMDYwNywzMzIuODY1Miw3MzkuNjUzNiwzMjkuMjcyMyw3MzUuMjg0MywzMzIuMzgsNzQ0LjYzIiBzdHlsZT0ic3Ryb2tlOiMxODE4MTg7c3Ryb2tlLXdpZHRoOjEuMDsiLz48dGV4dCBmaWxsPSIjMDAwMDAwIiBmb250LWZhbWlseT0ic2Fucy1zZXJpZiIgZm9udC1zaXplPSIxMyIgbGVuZ3RoQWRqdXN0PSJzcGFjaW5nIiB0ZXh0TGVuZ3RoPSI5NCIgeD0iMzM4IiB5PSI3MTMuMjg5MSI+Q29tcGxldGUgTGV2ZWw8L3RleHQ+PC9nPjwhLS1saW5rIExldmVsQ29tcGxldGUgdG8gVW5sb2NrTmV4dExldmVsLS0+PGcgaWQ9ImxpbmtfTGV2ZWxDb21wbGV0ZV9VbmxvY2tOZXh0TGV2ZWwiPjxwYXRoIGQ9Ik0yNzMuODYsNzkyLjc3IEMyNjAuNDEsODAwLjc5IDI0Ny43Miw4MTEuMzYgMjQwLDgyNSBDMjMxLjczLDgzOS42MSAyMzYuMTcyLDg1MS42ODI5IDI0Ni42ODIsODY1LjA1MjkgIiBmaWxsPSJub25lIiBpZD0iTGV2ZWxDb21wbGV0ZS10by1VbmxvY2tOZXh0TGV2ZWwiIHN0eWxlPSJzdHJva2U6IzE4MTgxODtzdHJva2Utd2lkdGg6MS4wOyIvPjxwb2x5Z29uIGZpbGw9IiMxODE4MTgiIHBvaW50cz0iMjUwLjM5LDg2OS43NywyNDcuOTcyNyw4NjAuMjIyNCwyNDcuMyw4NjUuODM5MSwyNDEuNjgzMyw4NjUuMTY2NCwyNTAuMzksODY5Ljc3IiBzdHlsZT0ic3Ryb2tlOiMxODE4MTg7c3Ryb2tlLXdpZHRoOjEuMDsiLz48dGV4dCBmaWxsPSIjMDAwMDAwIiBmb250LWZhbWlseT0ic2Fucy1zZXJpZiIgZm9udC1zaXplPSIxMyIgbGVuZ3RoQWRqdXN0PSJzcGFjaW5nIiB0ZXh0TGVuZ3RoPSI3NSIgeD0iMjQxIiB5PSI4MzguMjg5MSI+VW5sb2NrIG5leHQ8L3RleHQ+PC9nPjwhLS1saW5rIFVubG9ja05leHRMZXZlbCB0byAqZW5kKkxldmVsR2FtZXBsYXktLT48ZyBpZD0ibGlua19VbmxvY2tOZXh0TGV2ZWxfKmVuZCpMZXZlbEdhbWVwbGF5Ij48cGF0aCBkPSJNMjkzLjQyLDkyMC4xOSBDMzExLjk1LDk0NC41MyAzMzUuODQ1NCw5NzUuOTA2MSAzNDguMDk1NCw5OTEuOTk2MSAiIGZpbGw9Im5vbmUiIGlkPSJVbmxvY2tOZXh0TGV2ZWwtdG8tKmVuZCpMZXZlbEdhbWVwbGF5IiBzdHlsZT0ic3Ryb2tlOiMxODE4MTg7c3Ryb2tlLXdpZHRoOjEuMDsiLz48cG9seWdvbiBmaWxsPSIjMTgxODE4IiBwb2ludHM9IjM1MS43Myw5OTYuNzcsMzQ5LjQ2MDcsOTg3LjE4NjEsMzQ4LjcwMTIsOTkyLjc5MTgsMzQzLjA5NTYsOTkyLjAzMjIsMzUxLjczLDk5Ni43NyIgc3R5bGU9InN0cm9rZTojMTgxODE4O3N0cm9rZS13aWR0aDoxLjA7Ii8+PHRleHQgZmlsbD0iIzAwMDAwMCIgZm9udC1mYW1pbHk9InNhbnMtc2VyaWYiIGZvbnQtc2l6ZT0iMTMiIGxlbmd0aEFkanVzdD0ic3BhY2luZyIgdGV4dExlbmd0aD0iMjEiIHg9IjMyOCIgeT0iOTYzLjI4OTEiPkVuZDwvdGV4dD48L2c+PCEtLWxpbmsgTGV2ZWxDb21wbGV0ZSB0byBSZXRyeU9yRXhpdFRvTWVudS0tPjxnIGlkPSJsaW5rX0xldmVsQ29tcGxldGVfUmV0cnlPckV4aXRUb01lbnUiPjxwYXRoIGQ9Ik0zNTEuODYsNzk1LjAxIEMzNzEuNDcsODE2LjU0IDM5Ni4wNTk4LDg0My41NTQyIDQxNS43Njk4LDg2NS4xOTQyICIgZmlsbD0ibm9uZSIgaWQ9IkxldmVsQ29tcGxldGUtdG8tUmV0cnlPckV4aXRUb01lbnUiIHN0eWxlPSJzdHJva2U6IzE4MTgxODtzdHJva2Utd2lkdGg6MS4wOyIvPjxwb2x5Z29uIGZpbGw9IiMxODE4MTgiIHBvaW50cz0iNDE5LjgxLDg2OS42Myw0MTYuNzA2OSw4NjAuMjgyOCw0MTYuNDQzMiw4NjUuOTMzNSw0MTAuNzkyNCw4NjUuNjY5Nyw0MTkuODEsODY5LjYzIiBzdHlsZT0ic3Ryb2tlOiMxODE4MTg7c3Ryb2tlLXdpZHRoOjEuMDsiLz48dGV4dCBmaWxsPSIjMDAwMDAwIiBmb250LWZhbWlseT0ic2Fucy1zZXJpZiIgZm9udC1zaXplPSIxMyIgbGVuZ3RoQWRqdXN0PSJzcGFjaW5nIiB0ZXh0TGVuZ3RoPSI4OCIgeD0iMzk0IiB5PSI4MzguMjg5MSI+UmV0cnkgb3IgRXhpdDwvdGV4dD48L2c+PCEtLWxpbmsgUmV0cnlPckV4aXRUb01lbnUgdG8gKmVuZCpMZXZlbEdhbWVwbGF5LS0+PGcgaWQ9ImxpbmtfUmV0cnlPckV4aXRUb01lbnVfKmVuZCpMZXZlbEdhbWVwbGF5Ij48cGF0aCBkPSJNNDIzLjM2LDkyMC4xOSBDNDA0LjYsOTQ0LjUzIDM4MC40MDI1LDk3NS45Mjc2IDM2OC4wMDI1LDk5Mi4wMTc2ICIgZmlsbD0ibm9uZSIgaWQ9IlJldHJ5T3JFeGl0VG9NZW51LXRvLSplbmQqTGV2ZWxHYW1lcGxheSIgc3R5bGU9InN0cm9rZTojMTgxODE4O3N0cm9rZS13aWR0aDoxLjA7Ii8+PHBvbHlnb24gZmlsbD0iIzE4MTgxOCIgcG9pbnRzPSIzNjQuMzQsOTk2Ljc3LDM3My4wMDIxLDk5Mi4wODMsMzY3LjM5MjEsOTkyLjgwOTYsMzY2LjY2NTUsOTg3LjE5OTYsMzY0LjM0LDk5Ni43NyIgc3R5bGU9InN0cm9rZTojMTgxODE4O3N0cm9rZS13aWR0aDoxLjA7Ii8+PHRleHQgZmlsbD0iIzAwMDAwMCIgZm9udC1mYW1pbHk9InNhbnMtc2VyaWYiIGZvbnQtc2l6ZT0iMTMiIGxlbmd0aEFkanVzdD0ic3BhY2luZyIgdGV4dExlbmd0aD0iMjEiIHg9IjQwMSIgeT0iOTYzLjI4OTEiPkVuZDwvdGV4dD48L2c+PCEtLWxpbmsgTGV2ZWxBdmFpbGFibGUgdG8gRGlzcGxheVVuYXZhaWxhYmxlTWVzc2FnZS0tPjxnIGlkPSJsaW5rX0xldmVsQXZhaWxhYmxlX0Rpc3BsYXlVbmF2YWlsYWJsZU1lc3NhZ2UiPjxwYXRoIGQ9Ik00ODguMDgsNDIwLjAxIEM1MjEuNDYsNDQxLjYxIDU2NS4yMDM0LDQ2OS45MjkyIDU5OC42NDM0LDQ5MS41NzkyICIgZmlsbD0ibm9uZSIgaWQ9IkxldmVsQXZhaWxhYmxlLXRvLURpc3BsYXlVbmF2YWlsYWJsZU1lc3NhZ2UiIHN0eWxlPSJzdHJva2U6IzE4MTgxODtzdHJva2Utd2lkdGg6MS4wOyIvPjxwb2x5Z29uIGZpbGw9IiMxODE4MTgiIHBvaW50cz0iNjAzLjY4LDQ5NC44NCw1OTguMjk5LDQ4Ni41OTExLDU5OS40ODI5LDQ5Mi4xMjI3LDU5My45NTEzLDQ5My4zMDY1LDYwMy42OCw0OTQuODQiIHN0eWxlPSJzdHJva2U6IzE4MTgxODtzdHJva2Utd2lkdGg6MS4wOyIvPjx0ZXh0IGZpbGw9IiMwMDAwMDAiIGZvbnQtZmFtaWx5PSJzYW5zLXNlcmlmIiBmb250LXNpemU9IjEzIiBsZW5ndGhBZGp1c3Q9InNwYWNpbmciIHRleHRMZW5ndGg9IjgyIiB4PSI1NTgiIHk9IjQ2My4yODkxIj5MZXZlbCBsb2NrZWQ8L3RleHQ+PC9nPjwhLS1saW5rIERpc3BsYXlVbmF2YWlsYWJsZU1lc3NhZ2UgdG8gKmVuZCotLT48ZyBpZD0ibGlua19EaXNwbGF5VW5hdmFpbGFibGVNZXNzYWdlXyplbmQqIj48cGF0aCBkPSJNNjQxLDU0NS4wMSBDNjQxLDU3MS45OSA2NDEsNjA4LjU1IDY0MSw2MjcuODcgIiBmaWxsPSJub25lIiBpZD0iRGlzcGxheVVuYXZhaWxhYmxlTWVzc2FnZS10by0qZW5kKiIgc3R5bGU9InN0cm9rZTojMTgxODE4O3N0cm9rZS13aWR0aDoxLjA7Ii8+PHBvbHlnb24gZmlsbD0iIzE4MTgxOCIgcG9pbnRzPSI2NDEsNjMzLjg3LDY0NSw2MjQuODcsNjQxLDYyOC44Nyw2MzcsNjI0Ljg3LDY0MSw2MzMuODciIHN0eWxlPSJzdHJva2U6IzE4MTgxODtzdHJva2Utd2lkdGg6MS4wOyIvPjx0ZXh0IGZpbGw9IiMwMDAwMDAiIGZvbnQtZmFtaWx5PSJzYW5zLXNlcmlmIiBmb250LXNpemU9IjEzIiBsZW5ndGhBZGp1c3Q9InNwYWNpbmciIHRleHRMZW5ndGg9IjIxIiB4PSI2NDIiIHk9IjU4OC4yODkxIj5FbmQ8L3RleHQ+PC9nPjwhLS1TUkM9W1RQNzFKaUNtMzhSbFVPZmVId0l6MDBVYWdLblNEYTIzZElPRWVWazFRNWJJOVR4ZVg3WHR1Y0hQUUljZEVoeV9feFJocFRNQmQ0dmx2MUNmSnRUZzN0Y1RPejRmQUctM2NYT3VtYUdZVnhFY2RIS1lhMkI4SVRRdmczN2dEOTRnUEJHZXlhbDhkWExSZnNYc0xEZ2VMdUVCRXJlVEE0SC1hRVVJa0lOdUNhbndIRXdOb0NuWng1VUdqNGlzWWMyTklVdHI2bk9rNDNUczBVZEROT2xDcDBnWEtQenNIaks3d2J0Wmo2TnloNFB1QjMtU2VOQU1qM3RXeG0wU0xNeFY2MTBJVTB4Qmw3czBJelJNazdmdFpfUG9hUW44NndMT0NTbnBwSVBVY2RfTVRqSG4xVkFkMXB6bERKc3g5VW1YeEhTcndSbmFETXF2UEZnLXRxQUN0RWZNMXB4enNnZVlCbjYyVWt5a3BSRFlBX3U3VXNyLTAwMDBdLS0+PC9nPjwvc3ZnPg==;" vertex="1" parent="1">
            <mxGeometry x="1160" y="-71" width="745" height="1039" as="geometry" />
          </mxCell>
        </UserObject>
        <mxCell id="BGUdlJ1mRM6hW-QfQInx-49" value="" style="ellipse;html=1;shape=startState;fillColor=#A8DADC;strokeColor=#457B9D;fontColor=#1D3557;labelBackgroundColor=none;" vertex="1" parent="1">
          <mxGeometry x="2341.5" y="-91" width="30" height="30" as="geometry" />
        </mxCell>
        <mxCell id="BGUdlJ1mRM6hW-QfQInx-50" value="" style="edgeStyle=orthogonalEdgeStyle;html=1;verticalAlign=bottom;endArrow=classic;endSize=8;strokeColor=#457B9D;rounded=0;fontColor=default;fillColor=#A8DADC;labelBackgroundColor=none;endFill=1;exitX=0.488;exitY=0.927;exitDx=0;exitDy=0;exitPerimeter=0;" edge="1" parent="1" source="BGUdlJ1mRM6hW-QfQInx-49">
          <mxGeometry relative="1" as="geometry">
            <mxPoint x="2356.21" y="-24" as="targetPoint" />
            <mxPoint x="2356.21" y="-56" as="sourcePoint" />
          </mxGeometry>
        </mxCell>
        <mxCell id="BGUdlJ1mRM6hW-QfQInx-51" style="edgeStyle=orthogonalEdgeStyle;rounded=0;orthogonalLoop=1;jettySize=auto;html=1;entryX=0.5;entryY=0;entryDx=0;entryDy=0;strokeColor=#457B9D;fontColor=default;fillColor=#A8DADC;labelBackgroundColor=none;" edge="1" parent="1" source="BGUdlJ1mRM6hW-QfQInx-52" target="BGUdlJ1mRM6hW-QfQInx-54">
          <mxGeometry relative="1" as="geometry" />
        </mxCell>
        <mxCell id="BGUdlJ1mRM6hW-QfQInx-52" value="Start Game" style="rounded=1;whiteSpace=wrap;html=1;arcSize=40;fontColor=#1D3557;fillColor=#A8DADC;strokeColor=#457B9D;labelBackgroundColor=none;" vertex="1" parent="1">
          <mxGeometry x="2296.5" y="-23" width="120" height="40" as="geometry" />
        </mxCell>
        <mxCell id="BGUdlJ1mRM6hW-QfQInx-53" value="" style="edgeStyle=orthogonalEdgeStyle;html=1;verticalAlign=bottom;endArrow=classic;endSize=8;strokeColor=#457B9D;rounded=0;fontColor=default;fillColor=#A8DADC;labelBackgroundColor=none;endFill=1;" edge="1" parent="1">
          <mxGeometry relative="1" as="geometry">
            <mxPoint x="2356.5" y="156" as="targetPoint" />
            <mxPoint x="2356.5" y="96" as="sourcePoint" />
          </mxGeometry>
        </mxCell>
        <mxCell id="BGUdlJ1mRM6hW-QfQInx-54" value="Select Level" style="rounded=1;whiteSpace=wrap;html=1;arcSize=40;fontColor=#1D3557;fillColor=#A8DADC;strokeColor=#457B9D;labelBackgroundColor=none;" vertex="1" parent="1">
          <mxGeometry x="2296.5" y="72" width="120" height="40" as="geometry" />
        </mxCell>
        <mxCell id="BGUdlJ1mRM6hW-QfQInx-55" style="edgeStyle=orthogonalEdgeStyle;rounded=0;orthogonalLoop=1;jettySize=auto;html=1;entryX=0;entryY=0.5;entryDx=0;entryDy=0;strokeColor=#457B9D;fontColor=default;fillColor=#A8DADC;labelBackgroundColor=none;" edge="1" parent="1" source="BGUdlJ1mRM6hW-QfQInx-57" target="BGUdlJ1mRM6hW-QfQInx-58">
          <mxGeometry relative="1" as="geometry" />
        </mxCell>
        <mxCell id="BGUdlJ1mRM6hW-QfQInx-56" style="edgeStyle=orthogonalEdgeStyle;rounded=0;orthogonalLoop=1;jettySize=auto;html=1;entryX=0.5;entryY=0;entryDx=0;entryDy=0;strokeColor=#457B9D;fontColor=default;fillColor=#A8DADC;labelBackgroundColor=none;" edge="1" parent="1" source="BGUdlJ1mRM6hW-QfQInx-57" target="BGUdlJ1mRM6hW-QfQInx-60">
          <mxGeometry relative="1" as="geometry" />
        </mxCell>
        <mxCell id="BGUdlJ1mRM6hW-QfQInx-57" value="Level Available?" style="shape=hexagon;perimeter=hexagonPerimeter2;whiteSpace=wrap;html=1;fixedSize=1;strokeColor=#457B9D;fontColor=#1D3557;fillColor=#A8DADC;labelBackgroundColor=none;" vertex="1" parent="1">
          <mxGeometry x="2296.5" y="156" width="120" height="36" as="geometry" />
        </mxCell>
        <mxCell id="BGUdlJ1mRM6hW-QfQInx-104" style="edgeStyle=orthogonalEdgeStyle;rounded=0;orthogonalLoop=1;jettySize=auto;html=1;entryX=0.5;entryY=0;entryDx=0;entryDy=0;" edge="1" parent="1" source="BGUdlJ1mRM6hW-QfQInx-58" target="BGUdlJ1mRM6hW-QfQInx-102">
          <mxGeometry relative="1" as="geometry" />
        </mxCell>
        <mxCell id="BGUdlJ1mRM6hW-QfQInx-58" value="Display Unavailable Message" style="rounded=1;whiteSpace=wrap;html=1;arcSize=40;fontColor=#1D3557;fillColor=#A8DADC;strokeColor=#457B9D;labelBackgroundColor=none;" vertex="1" parent="1">
          <mxGeometry x="2527.5" y="154" width="190" height="40" as="geometry" />
        </mxCell>
        <mxCell id="BGUdlJ1mRM6hW-QfQInx-60" value="Enter Level" style="rounded=1;whiteSpace=wrap;html=1;arcSize=40;fontColor=#1D3557;fillColor=#A8DADC;strokeColor=#457B9D;labelBackgroundColor=none;" vertex="1" parent="1">
          <mxGeometry x="2136.5" y="197" width="120" height="40" as="geometry" />
        </mxCell>
        <mxCell id="BGUdlJ1mRM6hW-QfQInx-61" value="" style="edgeStyle=orthogonalEdgeStyle;html=1;verticalAlign=bottom;endArrow=classic;endSize=8;strokeColor=#457B9D;rounded=0;fontColor=default;fillColor=#A8DADC;labelBackgroundColor=none;endFill=1;" edge="1" parent="1">
          <mxGeometry relative="1" as="geometry">
            <mxPoint x="2196.5" y="273" as="targetPoint" />
            <mxPoint x="2196.5" y="237" as="sourcePoint" />
          </mxGeometry>
        </mxCell>
        <mxCell id="BGUdlJ1mRM6hW-QfQInx-62" value="Level locked" style="text;html=1;align=center;verticalAlign=middle;resizable=0;points=[];autosize=1;strokeColor=none;fillColor=none;fontColor=#1D3557;labelBackgroundColor=none;" vertex="1" parent="1">
          <mxGeometry x="2408.5" y="152" width="90" height="30" as="geometry" />
        </mxCell>
        <mxCell id="BGUdlJ1mRM6hW-QfQInx-63" value="Enter" style="text;html=1;align=center;verticalAlign=middle;resizable=0;points=[];autosize=1;strokeColor=none;fillColor=none;fontColor=#1D3557;labelBackgroundColor=none;" vertex="1" parent="1">
          <mxGeometry x="2247.5" y="152" width="50" height="30" as="geometry" />
        </mxCell>
        <mxCell id="BGUdlJ1mRM6hW-QfQInx-64" style="edgeStyle=orthogonalEdgeStyle;rounded=0;orthogonalLoop=1;jettySize=auto;html=1;entryX=0.5;entryY=0;entryDx=0;entryDy=0;strokeColor=#457B9D;fontColor=default;fillColor=#A8DADC;labelBackgroundColor=none;" edge="1" parent="1" source="BGUdlJ1mRM6hW-QfQInx-65" target="BGUdlJ1mRM6hW-QfQInx-80">
          <mxGeometry relative="1" as="geometry">
            <Array as="points">
              <mxPoint x="2087.5" y="293" />
              <mxPoint x="2087.5" y="669" />
              <mxPoint x="2196.5" y="669" />
            </Array>
          </mxGeometry>
        </mxCell>
        <mxCell id="BGUdlJ1mRM6hW-QfQInx-65" value="Level in Progrees" style="rounded=1;whiteSpace=wrap;html=1;arcSize=40;fontColor=#1D3557;fillColor=#A8DADC;strokeColor=#457B9D;labelBackgroundColor=none;" vertex="1" parent="1">
          <mxGeometry x="2136.5" y="273" width="120" height="40" as="geometry" />
        </mxCell>
        <mxCell id="BGUdlJ1mRM6hW-QfQInx-66" value="" style="edgeStyle=orthogonalEdgeStyle;html=1;verticalAlign=bottom;endArrow=classic;endSize=8;strokeColor=#457B9D;rounded=0;fontColor=default;fillColor=#A8DADC;labelBackgroundColor=none;exitX=0.5;exitY=1;exitDx=0;exitDy=0;endFill=1;entryX=0.5;entryY=0;entryDx=0;entryDy=0;" edge="1" parent="1" source="BGUdlJ1mRM6hW-QfQInx-65" target="BGUdlJ1mRM6hW-QfQInx-67">
          <mxGeometry relative="1" as="geometry">
            <mxPoint x="2195.5" y="342" as="targetPoint" />
            <mxPoint x="2195.5" y="318" as="sourcePoint" />
          </mxGeometry>
        </mxCell>
        <mxCell id="BGUdlJ1mRM6hW-QfQInx-67" value="Play Level" style="rounded=1;whiteSpace=wrap;html=1;arcSize=40;fontColor=#1D3557;fillColor=#A8DADC;strokeColor=#457B9D;labelBackgroundColor=none;" vertex="1" parent="1">
          <mxGeometry x="2136.5" y="344" width="120" height="34" as="geometry" />
        </mxCell>
        <mxCell id="BGUdlJ1mRM6hW-QfQInx-68" value="" style="edgeStyle=orthogonalEdgeStyle;html=1;verticalAlign=bottom;endArrow=classic;endSize=8;strokeColor=#457B9D;rounded=0;fontColor=default;fillColor=#A8DADC;labelBackgroundColor=none;endFill=1;exitX=0.5;exitY=1;exitDx=0;exitDy=0;" edge="1" parent="1" source="BGUdlJ1mRM6hW-QfQInx-67">
          <mxGeometry relative="1" as="geometry">
            <mxPoint x="2196.5" y="424" as="targetPoint" />
            <mxPoint x="2196.5" y="390" as="sourcePoint" />
          </mxGeometry>
        </mxCell>
        <mxCell id="BGUdlJ1mRM6hW-QfQInx-69" style="edgeStyle=orthogonalEdgeStyle;rounded=0;orthogonalLoop=1;jettySize=auto;html=1;entryX=1;entryY=0.5;entryDx=0;entryDy=0;strokeColor=#457B9D;fontColor=default;fillColor=#A8DADC;labelBackgroundColor=none;exitX=1;exitY=0.5;exitDx=0;exitDy=0;" edge="1" parent="1" source="BGUdlJ1mRM6hW-QfQInx-70" target="BGUdlJ1mRM6hW-QfQInx-75">
          <mxGeometry relative="1" as="geometry">
            <mxPoint x="2270.5" y="445" as="sourcePoint" />
            <Array as="points">
              <mxPoint x="2256.5" y="441" />
              <mxPoint x="2299.5" y="441" />
              <mxPoint x="2299.5" y="600" />
              <mxPoint x="2224.5" y="600" />
            </Array>
          </mxGeometry>
        </mxCell>
        <mxCell id="BGUdlJ1mRM6hW-QfQInx-70" value="Life Lost?" style="rounded=1;whiteSpace=wrap;html=1;arcSize=40;fontColor=#1D3557;fillColor=#A8DADC;strokeColor=#457B9D;labelBackgroundColor=none;" vertex="1" parent="1">
          <mxGeometry x="2136" y="425" width="120" height="25" as="geometry" />
        </mxCell>
        <mxCell id="BGUdlJ1mRM6hW-QfQInx-71" value="" style="edgeStyle=orthogonalEdgeStyle;html=1;verticalAlign=bottom;endArrow=classic;endSize=8;strokeColor=#457B9D;rounded=0;fontColor=default;fillColor=#A8DADC;labelBackgroundColor=none;endFill=1;" edge="1" parent="1">
          <mxGeometry relative="1" as="geometry">
            <mxPoint x="2196.5" y="495" as="targetPoint" />
            <mxPoint x="2196.5" y="451" as="sourcePoint" />
          </mxGeometry>
        </mxCell>
        <mxCell id="BGUdlJ1mRM6hW-QfQInx-72" value="Respawn at checkpoint" style="rounded=1;whiteSpace=wrap;html=1;arcSize=40;fontColor=#1D3557;fillColor=#A8DADC;strokeColor=#457B9D;labelBackgroundColor=none;" vertex="1" parent="1">
          <mxGeometry x="2121" y="496" width="151" height="29" as="geometry" />
        </mxCell>
        <mxCell id="BGUdlJ1mRM6hW-QfQInx-73" value="" style="edgeStyle=orthogonalEdgeStyle;html=1;verticalAlign=bottom;endArrow=classic;endSize=8;strokeColor=#457B9D;rounded=0;fontColor=default;fillColor=#A8DADC;labelBackgroundColor=none;endFill=1;" edge="1" parent="1">
          <mxGeometry relative="1" as="geometry">
            <mxPoint x="2196.5" y="572" as="targetPoint" />
            <mxPoint x="2196.5" y="525" as="sourcePoint" />
          </mxGeometry>
        </mxCell>
        <mxCell id="BGUdlJ1mRM6hW-QfQInx-74" style="edgeStyle=orthogonalEdgeStyle;rounded=0;orthogonalLoop=1;jettySize=auto;html=1;entryX=1;entryY=0.5;entryDx=0;entryDy=0;strokeColor=#457B9D;fontColor=default;fillColor=#A8DADC;labelBackgroundColor=none;" edge="1" parent="1" source="BGUdlJ1mRM6hW-QfQInx-75" target="BGUdlJ1mRM6hW-QfQInx-65">
          <mxGeometry relative="1" as="geometry">
            <Array as="points">
              <mxPoint x="2196.5" y="652" />
              <mxPoint x="2362.5" y="652" />
              <mxPoint x="2362.5" y="293" />
            </Array>
          </mxGeometry>
        </mxCell>
        <mxCell id="BGUdlJ1mRM6hW-QfQInx-75" value="" style="rhombus;whiteSpace=wrap;html=1;strokeColor=#457B9D;fontColor=#1D3557;fillColor=#A8DADC;labelBackgroundColor=none;" vertex="1" parent="1">
          <mxGeometry x="2168.5" y="571" width="56" height="56" as="geometry" />
        </mxCell>
        <mxCell id="BGUdlJ1mRM6hW-QfQInx-76" value="No" style="text;html=1;align=center;verticalAlign=middle;resizable=0;points=[];autosize=1;strokeColor=none;fillColor=none;fontColor=#1D3557;labelBackgroundColor=none;" vertex="1" parent="1">
          <mxGeometry x="2274.5" y="422" width="33" height="26" as="geometry" />
        </mxCell>
        <mxCell id="BGUdlJ1mRM6hW-QfQInx-77" value="Yes" style="text;html=1;align=center;verticalAlign=middle;resizable=0;points=[];autosize=1;strokeColor=none;fillColor=none;fontColor=#1D3557;labelBackgroundColor=none;" vertex="1" parent="1">
          <mxGeometry x="2190.5" y="455" width="38" height="26" as="geometry" />
        </mxCell>
        <mxCell id="BGUdlJ1mRM6hW-QfQInx-78" style="edgeStyle=orthogonalEdgeStyle;rounded=0;orthogonalLoop=1;jettySize=auto;html=1;entryX=0.5;entryY=0;entryDx=0;entryDy=0;strokeColor=#457B9D;fontColor=default;fillColor=#A8DADC;labelBackgroundColor=none;" edge="1" parent="1" source="BGUdlJ1mRM6hW-QfQInx-80" target="BGUdlJ1mRM6hW-QfQInx-83">
          <mxGeometry relative="1" as="geometry" />
        </mxCell>
        <mxCell id="BGUdlJ1mRM6hW-QfQInx-79" style="edgeStyle=orthogonalEdgeStyle;rounded=0;orthogonalLoop=1;jettySize=auto;html=1;entryX=0.5;entryY=0;entryDx=0;entryDy=0;strokeColor=#457B9D;fontColor=default;fillColor=#A8DADC;labelBackgroundColor=none;" edge="1" parent="1" source="BGUdlJ1mRM6hW-QfQInx-80" target="BGUdlJ1mRM6hW-QfQInx-84">
          <mxGeometry relative="1" as="geometry" />
        </mxCell>
        <mxCell id="BGUdlJ1mRM6hW-QfQInx-80" value="Level Complete?" style="shape=hexagon;perimeter=hexagonPerimeter2;whiteSpace=wrap;html=1;fixedSize=1;strokeColor=#457B9D;fontColor=#1D3557;fillColor=#A8DADC;labelBackgroundColor=none;" vertex="1" parent="1">
          <mxGeometry x="2136.5" y="687" width="120" height="31" as="geometry" />
        </mxCell>
        <mxCell id="BGUdlJ1mRM6hW-QfQInx-81" value="No" style="text;html=1;align=center;verticalAlign=middle;resizable=0;points=[];autosize=1;strokeColor=none;fillColor=none;fontColor=#1D3557;labelBackgroundColor=none;" vertex="1" parent="1">
          <mxGeometry x="2102.5" y="272" width="33" height="26" as="geometry" />
        </mxCell>
        <mxCell id="BGUdlJ1mRM6hW-QfQInx-82" style="edgeStyle=orthogonalEdgeStyle;rounded=0;orthogonalLoop=1;jettySize=auto;html=1;entryX=0;entryY=0.5;entryDx=0;entryDy=0;strokeColor=#457B9D;fontColor=default;fillColor=#A8DADC;labelBackgroundColor=none;" edge="1" parent="1" source="BGUdlJ1mRM6hW-QfQInx-83" target="BGUdlJ1mRM6hW-QfQInx-88">
          <mxGeometry relative="1" as="geometry">
            <Array as="points">
              <mxPoint x="2045.5" y="812" />
            </Array>
          </mxGeometry>
        </mxCell>
        <mxCell id="BGUdlJ1mRM6hW-QfQInx-83" value="Unlock Next Level" style="rounded=1;whiteSpace=wrap;html=1;arcSize=40;fontColor=#1D3557;fillColor=#A8DADC;strokeColor=#457B9D;labelBackgroundColor=none;" vertex="1" parent="1">
          <mxGeometry x="2000" y="748" width="121" height="25" as="geometry" />
        </mxCell>
        <mxCell id="BGUdlJ1mRM6hW-QfQInx-84" value="Retry or Exit to Menu" style="rounded=1;whiteSpace=wrap;html=1;arcSize=40;fontColor=#1D3557;fillColor=#A8DADC;strokeColor=#457B9D;labelBackgroundColor=none;" vertex="1" parent="1">
          <mxGeometry x="2265.5" y="748" width="134.5" height="23" as="geometry" />
        </mxCell>
        <mxCell id="BGUdlJ1mRM6hW-QfQInx-85" value="Yes" style="text;html=1;align=center;verticalAlign=middle;resizable=0;points=[];autosize=1;strokeColor=none;fillColor=none;fontColor=#1D3557;labelBackgroundColor=none;" vertex="1" parent="1">
          <mxGeometry x="2103.5" y="684" width="38" height="26" as="geometry" />
        </mxCell>
        <mxCell id="BGUdlJ1mRM6hW-QfQInx-86" value="No" style="text;html=1;align=center;verticalAlign=middle;resizable=0;points=[];autosize=1;strokeColor=none;fillColor=none;fontColor=#1D3557;labelBackgroundColor=none;" vertex="1" parent="1">
          <mxGeometry x="2256" y="684" width="33" height="26" as="geometry" />
        </mxCell>
        <mxCell id="BGUdlJ1mRM6hW-QfQInx-99" style="edgeStyle=orthogonalEdgeStyle;rounded=0;orthogonalLoop=1;jettySize=auto;html=1;exitX=0.5;exitY=1;exitDx=0;exitDy=0;entryX=0;entryY=0.5;entryDx=0;entryDy=0;" edge="1" parent="1" source="BGUdlJ1mRM6hW-QfQInx-88" target="BGUdlJ1mRM6hW-QfQInx-91">
          <mxGeometry relative="1" as="geometry">
            <mxPoint x="2400" y="880" as="targetPoint" />
            <Array as="points">
              <mxPoint x="2197" y="850" />
            </Array>
          </mxGeometry>
        </mxCell>
        <mxCell id="BGUdlJ1mRM6hW-QfQInx-88" value="" style="rhombus;whiteSpace=wrap;html=1;strokeColor=#457B9D;fontColor=#1D3557;fillColor=#A8DADC;labelBackgroundColor=none;" vertex="1" parent="1">
          <mxGeometry x="2168.5" y="784" width="56" height="56" as="geometry" />
        </mxCell>
        <mxCell id="BGUdlJ1mRM6hW-QfQInx-89" style="edgeStyle=orthogonalEdgeStyle;rounded=0;orthogonalLoop=1;jettySize=auto;html=1;entryX=1;entryY=0.5;entryDx=0;entryDy=0;strokeColor=#457B9D;fontColor=default;fillColor=#A8DADC;labelBackgroundColor=none;" edge="1" parent="1" source="BGUdlJ1mRM6hW-QfQInx-84" target="BGUdlJ1mRM6hW-QfQInx-88">
          <mxGeometry relative="1" as="geometry">
            <Array as="points">
              <mxPoint x="2341.5" y="812" />
            </Array>
          </mxGeometry>
        </mxCell>
        <mxCell id="BGUdlJ1mRM6hW-QfQInx-90" style="edgeStyle=orthogonalEdgeStyle;rounded=0;orthogonalLoop=1;jettySize=auto;html=1;exitX=0.5;exitY=1;exitDx=0;exitDy=0;entryX=0.5;entryY=0;entryDx=0;entryDy=0;strokeColor=#457B9D;fontColor=default;fillColor=#A8DADC;labelBackgroundColor=none;" edge="1" parent="1">
          <mxGeometry relative="1" as="geometry">
            <mxPoint x="2435.5" y="876" as="sourcePoint" />
            <mxPoint x="2436.5" y="918" as="targetPoint" />
            <Array as="points">
              <mxPoint x="2435.5" y="918" />
            </Array>
          </mxGeometry>
        </mxCell>
        <mxCell id="BGUdlJ1mRM6hW-QfQInx-91" value="" style="rhombus;whiteSpace=wrap;html=1;strokeColor=#457B9D;fontColor=#1D3557;fillColor=#A8DADC;labelBackgroundColor=none;" vertex="1" parent="1">
          <mxGeometry x="2408" y="822" width="56" height="56" as="geometry" />
        </mxCell>
        <mxCell id="BGUdlJ1mRM6hW-QfQInx-92" value="Yes" style="text;html=1;align=center;verticalAlign=middle;resizable=0;points=[];autosize=1;strokeColor=none;fillColor=none;fontColor=#1D3557;labelBackgroundColor=none;" vertex="1" parent="1">
          <mxGeometry x="2190.5" y="308" width="38" height="26" as="geometry" />
        </mxCell>
        <mxCell id="BGUdlJ1mRM6hW-QfQInx-93" value="" style="ellipse;html=1;shape=endState;fillColor=#A8DADC;strokeColor=#457B9D;fontColor=#1D3557;labelBackgroundColor=none;" vertex="1" parent="1">
          <mxGeometry x="2422" y="984" width="30" height="30" as="geometry" />
        </mxCell>
        <mxCell id="BGUdlJ1mRM6hW-QfQInx-94" style="edgeStyle=orthogonalEdgeStyle;rounded=0;orthogonalLoop=1;jettySize=auto;html=1;entryX=0.5;entryY=0;entryDx=0;entryDy=0;strokeColor=#457B9D;fontColor=default;fillColor=#A8DADC;labelBackgroundColor=none;" edge="1" parent="1">
          <mxGeometry relative="1" as="geometry">
            <mxPoint x="2436" y="948" as="sourcePoint" />
            <mxPoint x="2437" y="984" as="targetPoint" />
          </mxGeometry>
        </mxCell>
        <mxCell id="BGUdlJ1mRM6hW-QfQInx-95" value="End Game" style="rounded=1;whiteSpace=wrap;html=1;arcSize=40;fontColor=#1D3557;fillColor=#A8DADC;strokeColor=#457B9D;labelBackgroundColor=none;" vertex="1" parent="1">
          <mxGeometry x="2385.25" y="918" width="103.5" height="30" as="geometry" />
        </mxCell>
        <mxCell id="BGUdlJ1mRM6hW-QfQInx-96" value="Start" style="text;html=1;align=center;verticalAlign=middle;resizable=0;points=[];autosize=1;strokeColor=none;fillColor=none;" vertex="1" parent="1">
          <mxGeometry x="2350" y="-64" width="50" height="30" as="geometry" />
        </mxCell>
        <mxCell id="BGUdlJ1mRM6hW-QfQInx-97" value="Level Selection" style="text;html=1;align=center;verticalAlign=middle;resizable=0;points=[];autosize=1;strokeColor=none;fillColor=none;" vertex="1" parent="1">
          <mxGeometry x="2360" y="31" width="100" height="30" as="geometry" />
        </mxCell>
        <mxCell id="BGUdlJ1mRM6hW-QfQInx-102" value="" style="ellipse;html=1;shape=endState;fillColor=#A8DADC;strokeColor=#457B9D;fontColor=#1D3557;labelBackgroundColor=none;" vertex="1" parent="1">
          <mxGeometry x="2607.5" y="242" width="30" height="30" as="geometry" />
        </mxCell>
        <mxCell id="BGUdlJ1mRM6hW-QfQInx-105" value="End" style="text;html=1;align=center;verticalAlign=middle;resizable=0;points=[];autosize=1;strokeColor=none;fillColor=none;" vertex="1" parent="1">
          <mxGeometry x="2633" y="208" width="40" height="30" as="geometry" />
        </mxCell>
        <mxCell id="BGUdlJ1mRM6hW-QfQInx-106" value="Start Level" style="text;html=1;align=center;verticalAlign=middle;resizable=0;points=[];autosize=1;strokeColor=none;fillColor=none;" vertex="1" parent="1">
          <mxGeometry x="2193" y="239" width="80" height="30" as="geometry" />
        </mxCell>
      </root>
    </mxGraphModel>
  </diagram>
</mxfile>
